<?xml version="1.0" encoding="UTF-8"?>
<svg id="Ebene_1" data-name="Ebene 1" xmlns="http://www.w3.org/2000/svg" viewBox="0 0 65.15 99.4">
  <defs>
    <style>
      .cls-1, .cls-2 {
        fill-rule: evenodd;
      }

      .cls-1, .cls-2, .cls-3, .cls-4 {
        stroke-width: 0px;
      }

      .cls-1, .cls-4 {
        fill: #fff;
      }

      .cls-2 {
        fill: #000;
      }

      .cls-3 {
        fill: #1d1d1b;
      }

      .cls-5 {
        fill: none;
        stroke: #1d1d1b;
        stroke-miterlimit: 10;
      }
    </style>
  </defs>
  <g>
    <g>
      <path class="cls-4" d="M5.4.05h54.36c2.98,0,5.4,2.42,5.4,5.4v88.6c0,2.98-2.42,5.4-5.4,5.4H5.4C2.42,99.45,0,97.03,0,94.05V5.45C0,2.47,2.42.05,5.4.05Z"/>
      <path class="cls-5" d="M5.4.05h54.36c2.98,0,5.4,2.42,5.4,5.4v88.6c0,2.98-2.42,5.4-5.4,5.4H5.4C2.42,99.45,0,97.03,0,94.05V5.45C0,2.47,2.42.05,5.4.05Z"/>
    </g>
    <path class="cls-1" d="M56.62,89.35c-.35,1.24-.73,2.44-1.37,3.38-.28-1.19-.72-2.2-1.01-3.38.45-.1,1.7-.18,2.38,0Z"/>
    <path class="cls-1" d="M53.6,10.25c.26-1.35.87-2.36,1.28-3.57.4,1.03.91,2.45,1.01,3.47-.59.2-1.55.04-2.29.09Z"/>
    <path class="cls-1" d="M11.45,89.35c-.45,1.17-.77,2.46-1.46,3.38-.21-1.25-.76-2.17-.91-3.48.77.05,1.76-.11,2.38.09Z"/>
    <g>
      <path class="cls-2" d="M9.84,14.84c.22.1.25.3.38.46.79.92,2.54,1.52,2.57,2.99.03,1.42-1.65,1.87-2.61.92.05.75.25,1.33.46,1.92h-1.34c.24-.51.39-1.12.38-1.88-.71.9-2.75.61-2.57-1.07.16-1.45,2.2-2.22,2.72-3.34Z"/>
      <path class="cls-2" d="M55.61,14.97c.22.1.25.3.38.46.79.92,2.54,1.52,2.57,2.99.03,1.42-1.65,1.87-2.61.92.05.75.25,1.33.46,1.92h-1.34c.24-.51.39-1.12.38-1.88-.71.9-2.75.61-2.57-1.07.16-1.45,2.2-2.22,2.72-3.34Z"/>
      <path class="cls-2" d="M55.85,84.11c-.22-.1-.25-.3-.38-.46-.79-.92-2.54-1.52-2.57-2.99-.03-1.42,1.65-1.87,2.61-.92-.05-.75-.25-1.33-.46-1.92h1.34c-.24.51-.39,1.12-.38,1.88.71-.89,2.75-.61,2.57,1.07-.16,1.45-2.2,2.22-2.72,3.34Z"/>
      <path class="cls-2" d="M10.09,83.97c-.22-.1-.25-.3-.38-.46-.79-.92-2.54-1.52-2.57-2.99-.03-1.42,1.65-1.87,2.61-.92-.05-.75-.25-1.33-.46-1.92h1.34c-.24.51-.39,1.12-.38,1.88.71-.9,2.75-.61,2.57,1.07-.16,1.45-2.21,2.22-2.72,3.34Z"/>
      <path class="cls-2" d="M32.1,5.93c.53.23.59.72.91,1.1,1.87,2.2,6.06,3.63,6.13,7.13.07,3.39-3.94,4.46-6.22,2.19.11,1.78.6,3.18,1.1,4.57h-3.2c.58-1.22.92-2.67.91-4.48-1.7,2.13-6.56,1.46-6.13-2.56.37-3.46,5.26-5.28,6.49-7.96Z"/>
      <path class="cls-2" d="M32.77,93.58c-.53-.23-.59-.72-.91-1.1-1.87-2.2-6.06-3.63-6.13-7.13-.07-3.39,3.94-4.46,6.22-2.19-.11-1.78-.6-3.18-1.1-4.57h3.2c-.58,1.22-.93,2.67-.91,4.48,1.7-2.13,6.56-1.46,6.13,2.56-.37,3.46-5.26,5.28-6.49,7.96Z"/>
    </g>
  </g>
  <path class="cls-1" d="M56.62,89.62c-.35,1.24-.73,2.44-1.37,3.38-.28-1.19-.72-2.2-1.01-3.38.45-.1,1.7-.18,2.38,0Z"/>
  <path class="cls-1" d="M53.61,10.52c.26-1.35.87-2.36,1.28-3.57.4,1.03.91,2.45,1.01,3.47-.59.2-1.55.04-2.29.09Z"/>
  <path class="cls-1" d="M11.45,89.62c-.45,1.17-.77,2.46-1.46,3.38-.21-1.25-.76-2.17-.91-3.48.77.05,1.76-.11,2.38.09Z"/>
  <path class="cls-3" d="M10.51,8.83l.21-.04-.1,1.55-.03.03c-.66,0-1.35-.01-2.06-.01-.67,0-1.28,0-1.84.01l-.03-.4c.3-.2.58-.38.82-.55.24-.17.45-.32.63-.47.18-.14.33-.28.47-.41.14-.13.25-.26.34-.38.09-.13.16-.26.21-.39.05-.13.07-.27.07-.42,0-.3-.11-.53-.32-.71-.22-.17-.48-.26-.79-.26-.37,0-.74.1-1.11.3l-.18-.32c.6-.41,1.21-.61,1.81-.61.46,0,.83.11,1.13.33.3.22.45.53.45.92,0,.24-.05.47-.16.68-.11.21-.27.42-.48.62-.21.2-.47.41-.77.62-.3.21-.65.43-1.04.66v.02h2.41l.38-.8Z"/>
  <path class="cls-3" d="M58.63,8.83l.21-.04-.1,1.55-.03.03c-.66,0-1.35-.01-2.06-.01-.67,0-1.28,0-1.84.01l-.03-.4c.3-.2.58-.38.82-.55.24-.17.45-.32.63-.47.18-.14.33-.28.47-.41.14-.13.25-.26.34-.38.09-.13.16-.26.21-.39.05-.13.07-.27.07-.42,0-.3-.11-.53-.32-.71-.22-.17-.48-.26-.79-.26-.37,0-.74.1-1.11.3l-.18-.32c.6-.41,1.21-.61,1.81-.61.45,0,.83.11,1.13.33.3.22.45.53.45.92,0,.24-.05.47-.16.68-.11.21-.27.42-.48.62-.21.2-.47.41-.77.62-.3.21-.65.43-1.04.66v.02h2.41l.38-.8Z"/>
  <path class="cls-3" d="M54.66,91.61l-.21.04.1-1.55.03-.03c.66,0,1.35.01,2.07.01.67,0,1.28,0,1.84-.01l.03.4c-.3.2-.58.38-.82.55-.24.17-.45.32-.63.47-.18.14-.33.28-.47.41-.14.13-.25.26-.34.38-.09.13-.16.26-.21.39-.05.13-.07.27-.07.42,0,.3.11.53.32.71.22.17.48.26.79.26.37,0,.74-.1,1.11-.3l.18.32c-.6.41-1.21.61-1.81.61-.46,0-.83-.11-1.13-.33-.3-.22-.45-.53-.45-.92,0-.25.05-.47.16-.68.11-.21.27-.42.48-.62.21-.2.47-.41.77-.62.3-.21.65-.43,1.04-.66v-.02h-2.41l-.38.8Z"/>
  <path class="cls-3" d="M6.54,91.61l-.21.04.1-1.55.03-.03c.66,0,1.35.01,2.07.01.67,0,1.28,0,1.84-.01l.03.4c-.3.2-.57.38-.82.55-.24.17-.45.32-.63.47-.18.14-.33.28-.47.41-.14.13-.25.26-.34.38-.09.13-.16.26-.21.39-.05.13-.07.27-.07.42,0,.3.11.53.32.71.22.17.48.26.79.26.37,0,.74-.1,1.11-.3l.18.32c-.6.41-1.21.61-1.81.61-.45,0-.83-.11-1.13-.33-.3-.22-.45-.53-.45-.92,0-.25.05-.47.16-.68.11-.21.27-.42.48-.62.21-.2.47-.41.77-.62.3-.21.65-.43,1.04-.66v-.02h-2.41l-.38.8Z"/>
</svg>